:SAMPLES-PER-SECOND 30
:FULLY-SPECIFIED
:DEGREES
320
root  -7.23324 39.6934 9.88426 -17.5551 -74.5647 16.708
RightUpLeg  4.50797 12.5223 0.434609
RightLeg  41.9348 2.11388 1.7414
RightFoot  39.221 -9.62229 20.8239
RightToes  -5.8209e-011 0 -3.6325e-017
Spine  -11.1071 23.5677 34.0862
Spine1  -0.731217 23.495 -24.0094
HEad  21.4455 -53.0977 -13.9155
LeftShoulder1  2.14758 -7.10447 -13.2541
LeftArm  -66.896 -35.2043 -9.5738
LeftForeArm  150.833 -81.2328 -109.403
LeftHand  -0.246645 0.021 5.37786
RightShoulder  2.81047 11.027 12.2806
RightArm  110.384 55.8197 162.692
RightForeArm  50.2888 55.0995 11.882
RightHand  -0.24729 -0.0210522 -5.37781
LeftUpLeg  -8.69165 -7.22597 -7.81288
LeftLeg  46.7655 -70.8404 -46.211
LeftFoot  7.33213 0.322757 -2.19798
LeftToes  -7.45818e-011 -3.37383e-011 1.08613e-011
321
root  -7.23065 39.6914 9.87591 -17.9177 -74.6789 17.0304
RightUpLeg  4.46287 12.4963 0.310676
RightLeg  42.0193 2.20338 1.83334
RightFoot  39.2952 -9.6124 20.7705
RightToes  -5.8209e-011 0 -3.6325e-017
Spine  -11.072 23.3659 34.1626
Spine1  -0.545832 23.3468 -24.06
HEad  21.2103 -52.6809 -13.6608
LeftShoulder1  2.23871 -7.39932 -13.5718
LeftArm  -65.7871 -35.3835 -10.3504
LeftForeArm  145.596 -81.4653 -104.171
LeftHand  -0.246645 0.021 5.37786
RightShoulder  2.90196 11.1971 12.7219
RightArm  109.904 56.1 161.601
RightForeArm  49.9251 54.5034 11.6093
RightHand  -0.24729 -0.0210522 -5.37781
LeftUpLeg  -8.63782 -7.08751 -7.8474
LeftLeg  46.7678 -70.8613 -46.2213
LeftFoot  7.32399 0.320103 -2.15836
LeftToes  -7.45818e-011 -3.37383e-011 1.08613e-011
322
root  -7.23365 39.6881 9.86327 -18.2534 -74.8638 17.3464
RightUpLeg  4.42814 12.5483 0.251878
RightLeg  42.0938 2.19512 1.83049
RightFoot  39.2967 -9.60831 20.7614
RightToes  -5.8209e-011 0 -3.6325e-017
Spine  -11.2182 23.1268 34.1677
Spine1  -0.14426 23.1399 -23.9078
HEad  20.696 -52.182 -13.209
LeftShoulder1  2.34227 -7.6398 -14.1069
LeftArm  -64.4654 -35.6281 -11.206
LeftForeArm  139.933 -81.6422 -98.2733
LeftHand  -0.246645 0.021 5.37786
RightShoulder  2.95258 11.2909 12.9612
RightArm  109.31 56.3121 160.568
RightForeArm  49.7534 53.8946 11.325
RightHand  -0.24729 -0.0210522 -5.37781
LeftUpLeg  -8.61532 -7.03628 -7.8418
LeftLeg  46.4996 -70.766 -45.9367
LeftFoot  7.29932 0.321803 -2.19565
LeftToes  -7.45818e-011 -3.37383e-011 1.08613e-011
323
root  -7.2439 39.6866 9.84994 -18.5944 -75.132 17.7
RightUpLeg  4.40011 12.7187 0.248768
RightLeg  42.1478 2.11031 1.75195
RightFoot  39.2274 -9.59616 20.767
RightToes  -5.8209e-011 0 -3.6325e-017
Spine  -11.5219 22.8804 34.0762
Spine1  0.369146 22.8935 -23.5843
HEad  20.1916 -51.6495 -12.8085
LeftShoulder1  2.45143 -7.86434 -14.7051
LeftArm  -62.9078 -35.8659 -12.2441
LeftForeArm  133.294 -81.738 -91.2481
LeftHand  -0.246645 0.021 5.37786
RightShoulder  2.99481 11.3591 13.1733
RightArm  108.76 56.5123 159.516
RightForeArm  49.4606 53.0965 10.9708
RightHand  -0.24729 -0.0210522 -5.37781
LeftUpLeg  -8.61308 -7.06475 -7.80733
LeftLeg  45.9077 -70.5705 -45.3057
LeftFoot  7.26105 0.324513 -2.25426
LeftToes  -7.45818e-011 -3.37383e-011 1.08613e-011
324
root  -7.25566 39.6918 9.83877 -19.0612 -75.4819 18.1763
RightUpLeg  4.38676 12.8844 0.199702
RightLeg  42.1591 2.047 1.69119
RightFoot  39.1661 -9.57094 20.7419
RightToes  -5.8209e-011 0 -3.6325e-017
Spine  -11.7578 22.6112 34.083
Spine1  0.775036 22.6287 -23.383
HEad  19.8933 -51.0325 -12.5722
LeftShoulder1  2.56406 -8.14388 -15.1975
LeftArm  -61.2731 -35.9576 -13.4795
LeftForeArm  124.88 -81.6732 -82.8765
LeftHand  -0.246645 0.021 5.37786
RightShoulder  3.09181 11.5347 13.6238
RightArm  108.314 56.7767 158.227
RightForeArm  48.728 52.0518 10.5522
RightHand  -0.24729 -0.0210522 -5.37781
LeftUpLeg  -8.57887 -7.12385 -7.7803
LeftLeg  45.0421 -70.3257 -44.3834
LeftFoot  7.20717 0.315819 -2.20307
LeftToes  -7.45818e-011 -3.37383e-011 1.08613e-011
325
root  -7.26512 39.7021 9.82377 -19.6987 -75.8992 18.8088
RightUpLeg  4.34981 12.9303 0.0501135
RightLeg  42.1528 2.07128 1.71425
RightFoot  39.1874 -9.52655 20.6406
RightToes  -5.8209e-011 0 -3.6325e-017
Spine  -11.8322 22.2744 34.258
Spine1  1.05135 22.328 -23.4073
HEad  19.5831 -50.2779 -12.2967
LeftShoulder1  2.67737 -8.44036 -15.6369
LeftArm  -59.7169 -35.9113 -14.762
LeftForeArm  115.397 -81.3848 -74.0931
LeftHand  -0.246645 0.021 5.37786
RightShoulder  3.19548 11.7258 14.0898
RightArm  107.835 57.0048 156.86
RightForeArm  47.7616 50.9257 10.1358
RightHand  -0.24729 -0.0210522 -5.37781
LeftUpLeg  -8.51299 -7.07474 -7.75485
LeftLeg  44.2149 -70.1372 -43.5097
LeftFoot  7.13693 0.297526 -2.09653
LeftToes  -7.45818e-011 -3.37383e-011 1.08613e-011
326
root  -7.27454 39.7093 9.79681 -20.4697 -76.3509 19.5819
RightUpLeg  4.25388 12.9551 -0.118986
RightLeg  42.194 2.13902 1.78268
RightFoot  39.2617 -9.45909 20.4685
RightToes  -5.8209e-011 0 -3.6325e-017
Spine  -11.9517 21.8511 34.3237
Spine1  1.43437 21.9344 -23.2905
HEad  19.0121 -49.3987 -11.8646
LeftShoulder1  2.79642 -8.66332 -16.2562
LeftArm  -58.1364 -35.8527 -15.9777
LeftForeArm  106.488 -80.9037 -65.9704
LeftHand  -0.246645 0.021 5.37786
RightShoulder  3.20035 11.7341 14.1114
RightArm  107.157 57.0603 155.748
RightForeArm  46.9041 49.815 9.73976
RightHand  -0.24729 -0.0210522 -5.37781
LeftUpLeg  -8.45998 -6.86673 -7.70727
LeftLeg  43.6337 -70.0422 -42.9088
LeftFoot  7.04834 0.295702 -2.09224
LeftToes  -7.45818e-011 -3.37383e-011 1.08613e-011
327
root  -7.28687 39.7098 9.76085 -21.3612 -76.7848 20.4758
RightUpLeg  4.15591 13.1397 -0.202864
RightLeg  42.2916 2.15194 1.80183
RightFoot  39.2964 -9.39747 20.326
RightToes  -5.8209e-011 0 -3.6325e-017
Spine  -12.3358 21.3796 34.038
Spine1  2.09877 21.4373 -22.7267
HEad  18.3412 -48.4237 -11.447
LeftShoulder1  2.93759 -8.8495 -17.1217
LeftArm  -56.3147 -35.8253 -17.1969
LeftForeArm  98.6035 -80.2492 -58.4919
LeftHand  -0.246645 0.021 5.37786
RightShoulder  3.14335 11.6409 13.8405
RightArm  106.289 57.0641 154.684
RightForeArm  46.0603 48.6559 9.34319
RightHand  -0.24729 -0.0210522 -5.37781
LeftUpLeg  -8.41972 -6.66986 -7.6636
LeftLeg  43.0984 -69.9166 -42.3506
LeftFoot  6.93821 0.301931 -2.13949
LeftToes  -7.45818e-011 -3.37383e-011 1.08613e-011
328
root  -7.3015 39.7086 9.72724 -22.3688 -77.1794 21.454
RightUpLeg  4.13747 13.4704 -0.214737
RightLeg  42.3813 2.08119 1.73884
RightFoot  39.2663 -9.38162 20.3064
RightToes  -5.8209e-011 0 -3.6325e-017
Spine  -12.8812 20.927 33.6224
Spine1  2.88665 20.9329 -22.0555
HEad  17.887 -47.3877 -11.1367
LeftShoulder1  3.10467 -9.13384 -17.9748
LeftArm  -54.1917 -35.7674 -18.5966
LeftForeArm  91.1776 -79.3689 -51.414
LeftHand  -0.246645 0.021 5.37786
RightShoulder  3.17554 11.7153 13.9601
RightArm  105.328 57.2791 153.058
RightForeArm  44.9564 47.4791 8.97566
RightHand  -0.24729 -0.0210522 -5.37781
LeftUpLeg  -8.35051 -6.64854 -7.6618
LeftLeg  42.3347 -69.6374 -41.5259
LeftFoot  6.81442 0.287799 -2.06104
LeftToes  -7.45818e-011 -3.37383e-011 1.08613e-011
329
root  -7.31612 39.71 9.70022 -23.4366 -77.5764 22.4671
RightUpLeg  4.16949 13.762 -0.247702
RightLeg  42.4314 1.99075 1.65363
RightFoot  39.2232 -9.39782 20.3585
RightToes  -5.8209e-011 0 -3.6325e-017
Spine  -13.3113 20.5135 33.4525
Spine1  3.53007 20.5081 -21.772
HEad  17.6086 -46.324 -10.7781
LeftShoulder1  3.27452 -9.51135 -18.6151
LeftArm  -51.8661 -35.6192 -20.2645
LeftForeArm  84.3679 -78.2949 -45.2339
LeftHand  -0.246645 0.021 5.37786
RightShoulder  3.30897 11.943 14.5712
RightArm  104.202 57.6631 150.796
RightForeArm  43.7217 46.4554 8.68791
RightHand  -0.24729 -0.0210522 -5.37781
LeftUpLeg  -8.2534 -6.71255 -7.67393
LeftLeg  41.4309 -69.2709 -40.5405
LeftFoot  6.69481 0.260285 -1.89706
LeftToes  -7.45818e-011 -3.37383e-011 1.08613e-011
330
root  -7.32953 39.7121 9.67364 -24.5335 -78.014 23.5217
RightUpLeg  4.15916 13.9205 -0.345364
RightLeg  42.4847 1.94184 1.60903
RightFoot  39.1894 -9.39382 20.3649
RightToes  -5.8209e-011 0 -3.6325e-017
Spine  -13.5278 20.1148 33.5183
Spine1  3.93516 20.142 -21.8509
HEad  17.3007 -45.2888 -10.3017
LeftShoulder1  3.43528 -9.88908 -19.1428
LeftArm  -49.4174 -35.3477 -22.1466
LeftForeArm  78.8984 -77.1711 -40.3474
LeftHand  -0.246645 0.021 5.37786
RightShoulder  3.43501 12.0905 15.2358
RightArm  102.68 57.9387 148.248
RightForeArm  42.7097 45.6267 8.46468
RightHand  -0.24729 -0.0210522 -5.37781
LeftUpLeg  -8.1698 -6.66636 -7.65052
LeftLeg  40.6703 -68.9783 -39.7204
LeftFoot  6.58956 0.249402 -1.83535
LeftToes  -7.45818e-011 -3.37383e-011 1.08613e-011
331
root  -7.34241 39.7133 9.6436 -25.7159 -78.4582 24.68
RightUpLeg  4.09813 14.0312 -0.471776
RightLeg  42.5712 1.92694 1.59971
RightFoot  39.1435 -9.36241 20.3197
RightToes  -5.8209e-011 0 -3.6325e-017
Spine  -13.729 19.7066 33.5135
Spine1  4.3027 19.7535 -21.8657
HEad  16.9325 -44.2861 -9.84595
LeftShoulder1  3.61162 -10.2563 -19.7831
LeftArm  -46.9751 -34.9074 -24.0603
LeftForeArm  74.8131 -76.0941 -36.5943
LeftHand  -0.246645 0.021 5.37786
RightShoulder  3.52929 12.1584 15.7896
RightArm  100.753 58.0398 145.538
RightForeArm  41.9564 44.8526 8.25029
RightHand  -0.24729 -0.0210522 -5.37781
LeftUpLeg  -8.10516 -6.48801 -7.6079
LeftLeg  40.1335 -68.7974 -39.1554
LeftFoot  6.49909 0.251674 -1.85567
LeftToes  -7.45818e-011 -3.37383e-011 1.08613e-011
332
root  -7.3567 39.7139 9.61472 -27.0162 -78.8613 25.9566
RightUpLeg  4.03914 14.1994 -0.583081
RightLeg  42.6617 1.91505 1.59353
RightFoot  39.1135 -9.34143 20.2892
RightToes  -5.8209e-011 0 -3.6325e-017
Spine  -14.132 19.2936 33.313
Spine1  4.88739 19.3178 -21.5972
HEad  16.5463 -43.2353 -9.46948
LeftShoulder1  3.82225 -10.6495 -20.5952
LeftArm  -44.7231 -34.2638 -25.8768
LeftForeArm  71.4031 -75.1036 -33.7933
LeftHand  -0.246645 0.021 5.37786
RightShoulder  3.65591 12.3204 16.4098
RightArm  98.7 58.1235 142.589
RightForeArm  41.2507 44.1019 8.0462
RightHand  -0.24729 -0.0210522 -5.37781
LeftUpLeg  -8.03477 -6.28979 -7.58995
LeftLeg  39.6884 -68.6386 -38.6932
LeftFoot  6.42792 0.237861 -1.77204
LeftToes  -7.45818e-011 -3.37383e-011 1.08613e-011
333
root  -7.37363 39.7176 9.59196 -28.349 -79.2514 27.2799
RightUpLeg  3.9715 14.4334 -0.667344
RightLeg  42.7293 1.90766 1.59032
RightFoot  39.1698 -9.33359 20.2486
RightToes  -5.8209e-011 0 -3.6325e-017
Spine  -14.6753 18.9147 33.0946
Spine1  5.61918 18.9001 -21.2668
HEad  16.128 -42.099 -9.05609
LeftShoulder1  4.05364 -11.0776 -21.4415
LeftArm  -42.6409 -33.4128 -27.6753
LeftForeArm  68.2515 -74.2536 -31.8423
LeftHand  -0.246645 0.021 5.37786
RightShoulder  3.83166 12.5685 17.2114
RightArm  96.611 58.2294 139.349
RightForeArm  40.5559 43.5514 7.91119
RightHand  -0.24729 -0.0210522 -5.37781
LeftUpLeg  -7.97112 -6.12981 -7.57866
LeftLeg  39.189 -68.4301 -38.1717
LeftFoot  6.37556 0.206454 -1.5738
LeftToes  -7.45818e-011 -3.37383e-011 1.08613e-011
